<svg xmlns="http://www.w3.org/2000/svg" xmlns:xlink="http://www.w3.org/1999/xlink" id="Layer_1" x="0px" y="0px" viewBox="0 0 140.6 140.6" style="enable-background:new 0 0 140.6 140.6;" xml:space="preserve">
<style type="text/css">
	.st0{fill:#FFFFFF;stroke:#67C3A6;stroke-width:8;stroke-miterlimit:10;}
	.st1{fill:#FFFFFF;stroke:#5F82FF;stroke-width:8;stroke-miterlimit:10;}
	.st2{fill:#172337;}
</style>
<g id="Layer_2_00000176758612324716359600000012872573691114152637_">
	<g id="Layer_1-2">
		<path class="st0" d="M71.1,4C34.5,3.6,4.5,32.9,4,69.5s28.9,66.7,65.5,67.1c0.5,0,1.1,0,1.6,0"></path>
		<path class="st1" d="M71.1,136.6c36.6-0.4,65.9-30.5,65.5-67.1c-0.4-36-29.5-65-65.5-65.5"></path>
		<path class="st2" d="M70.5,90.4h28c0.1,5.6,0.1,11,0,16.5H43.6V93c3.6-3.5,7.4-7.2,11.1-10.9c6.2-6.1,12.4-12.3,18.5-18.5    c1.8-1.7,3.3-3.7,4.5-5.9c1.6-2.9,1.9-6.1-0.4-8.8s-5.4-3.5-8.8-2.7c-3.4,0.6-6,3.3-6.6,6.7c-0.2,0.7-0.2,1.5-0.3,2.4H43.8    c-0.3-3.2,0.2-6.5,1.3-9.5c3.6-10.7,12.5-16.1,23-16.9c6.1-0.6,12.2,0.5,17.7,3.2c13.5,6.7,16.4,23.2,8.4,34.6    c-3.3,4.7-7.7,8.2-11.8,12.1c-3.5,3.3-7.1,6.6-10.7,9.8c-0.5,0.4-1.1,0.8-1.6,1.1L70.5,90.4z"></path>
	</g>
</g>
</svg>