<svg xmlns="http://www.w3.org/2000/svg" xmlns:xlink="http://www.w3.org/1999/xlink" id="Layer_1" x="0px" y="0px" viewBox="0 0 140.6 140.6" style="enable-background:new 0 0 140.6 140.6;" xml:space="preserve">
<style type="text/css">
	.st0{fill:#FFFFFF;stroke:#5F82FF;stroke-width:8;stroke-miterlimit:10;}
	.st1{fill:#172337;}
</style>
<g id="Layer_2_00000033333699834164718300000015905174991587680959_">
	<g id="Layer_1-2">
		<circle class="st0" cx="70.3" cy="70.3" r="66.3"></circle>
		<path class="st1" d="M88.4,65.4c2.3,1.9,4.5,3.9,6.6,6c6.4,7.4,5.4,20.5-1.6,27.5c-5.4,5.3-11.9,7.8-19.4,8.5    c-6.3,0.8-12.7-0.1-18.5-2.5c-8.1-3.4-12.9-9.6-14.1-18.4c-0.1-0.7-0.1-1.3,0-2c0-0.4,0.1-0.8,0.2-1.4h17.6    c0.2,0.4,0.3,0.8,0.4,1.2c1.4,7.4,12.3,9.2,17.5,4.4c3.1-3,3.2-7.9,0.2-11c-0.1-0.1-0.2-0.2-0.3-0.3c-2.3-2-5.2-3-8.3-2.9    c-3-0.1-6,0-9,0c-0.8,0-1.6-0.1-2.6-0.1V59.1c0.9-0.1,1.8-0.2,2.8-0.2c3.7-0.1,7.5-0.1,11.2-0.3c2.1-0.1,4.1-1.1,5.4-2.7    c2.5-2.6,2.4-6.8-0.2-9.3c-0.3-0.3-0.7-0.6-1-0.8c-3.6-2.1-8-2.1-11.6,0c-1.9,1.3-2.2,1.8-3.6,5.9H42.8c-0.7-2.1-0.1-4,0.5-5.9    c2.4-8.1,7.8-13.4,15.8-15.9c8.8-2.9,18.3-2.4,26.7,1.5c7.9,3.5,12.6,11.6,11.8,20.1c-0.4,5.2-3,9.2-7,12.4    c-0.4,0.3-0.8,0.6-1.2,0.9L88.4,65.4z"></path>
	</g>
</g>
</svg>