<svg xmlns="http://www.w3.org/2000/svg" xmlns:xlink="http://www.w3.org/1999/xlink" id="Layer_3" x="0px" y="0px" viewBox="0 0 500 405.6" style="enable-background:new 0 0 500 405.6;" xml:space="preserve"><style type="text/css">	.st0{fill:none;stroke:#74BEA2;stroke-width:5;stroke-miterlimit:10;}	.st1{fill:none;stroke:#74BEA2;stroke-width:2.5;stroke-miterlimit:10;}	.st2{fill:#74BEA2;}	.st3{fill:#6E53A3;}	.st4{fill:#6174B8;}	.st5{fill:#FFFFFF;}</style><polyline class="st0" points="99.5,0 99.5,345.8 500,345.8 "></polyline><line class="st1" x1="156.3" y1="276.1" x2="437.4" y2="43.4"></line><circle class="st2" cx="188.4" cy="246.7" r="6.2"></circle><circle class="st2" cx="230.6" cy="220.6" r="6.2"></circle><circle class="st2" cx="216.5" cy="246.7" r="6.2"></circle><circle class="st2" cx="236.9" cy="210.5" r="6.2"></circle><circle class="st2" cx="277.2" cy="169" r="6.2"></circle><circle class="st2" cx="314.3" cy="184.6" r="6.2"></circle><circle class="st2" cx="299.7" cy="117.2" r="6.2"></circle><circle class="st2" cx="287" cy="142.4" r="6.2"></circle><circle class="st2" cx="303.1" cy="153.5" r="6.2"></circle><circle class="st2" cx="296.9" cy="166" r="6.2"></circle><circle class="st2" cx="299.7" cy="134.6" r="6.2"></circle><circle class="st2" cx="311.8" cy="144.4" r="6.2"></circle><circle class="st2" cx="342.6" cy="167.2" r="6.2"></circle><circle class="st2" cx="353.6" cy="128.3" r="6.2"></circle><circle class="st2" cx="224.4" cy="167.6" r="6.2"></circle><circle class="st2" cx="280.1" cy="197.1" r="6.2"></circle><circle class="st2" cx="333.2" cy="167.6" r="6.2"></circle><circle class="st2" cx="339.5" cy="112.8" r="6.2"></circle><circle class="st2" cx="381.2" cy="106.6" r="6.2"></circle><circle class="st2" cx="421" cy="47.3" r="6.2"></circle><circle class="st2" cx="403.3" cy="64.7" r="6.2"></circle><circle class="st3" cx="371.5" cy="81.5" r="6.2"></circle><circle class="st3" cx="419.1" cy="77.2" r="6.2"></circle><circle class="st3" cx="368.7" cy="125.3" r="6.2"></circle><circle class="st3" cx="315.6" cy="197.1" r="6.2"></circle><circle class="st3" cx="249.4" cy="215.7" r="6.2"></circle><circle class="st3" cx="296.9" cy="184.6" r="6.2"></circle><circle class="st3" cx="290.6" cy="154.9" r="6.2"></circle><circle class="st3" cx="249.4" cy="188.6" r="6.2"></circle><circle class="st4" cx="190.5" cy="267.9" r="6.2"></circle><circle class="st4" cx="230.6" cy="200" r="6.2"></circle><circle class="st4" cx="230.6" cy="232.3" r="6.2"></circle><circle class="st4" cx="295.3" cy="200" r="6.2"></circle><circle class="st4" cx="299.7" cy="144.4" r="6.2"></circle><circle class="st4" cx="311.8" cy="158.1" r="6.2"></circle><circle class="st4" cx="362.5" cy="161" r="6.2"></circle><circle class="st4" cx="384" cy="71" r="6.2"></circle><circle class="st4" cx="333.2" cy="172.1" r="6.2"></circle><circle class="st4" cx="345.7" cy="100.3" r="6.2"></circle><circle class="st4" cx="406.6" cy="106.6" r="6.2"></circle><circle class="st4" cx="282.8" cy="131.6" r="6.2"></circle><circle class="st4" cx="262.1" cy="172.1" r="6.2"></circle><circle class="st4" cx="290.6" cy="173.8" r="6.2"></circle><circle class="st3" cx="258.1" cy="153.5" r="6.2"></circle><circle class="st3" cx="273.9" cy="216.7" r="6.2"></circle><circle class="st3" cx="210.3" cy="221.9" r="6.2"></circle><circle class="st3" cx="299.7" cy="128.3" r="6.2"></circle><circle class="st3" cx="311.8" cy="131.6" r="6.2"></circle><circle class="st3" cx="338.1" cy="125.6" r="6.2"></circle><circle class="st3" cx="323.2" cy="112.8" r="6.2"></circle><circle class="st2" cx="327" cy="128.3" r="6.2"></circle><circle class="st2" cx="329.5" cy="178.4" r="6.2"></circle><circle class="st2" cx="262.1" cy="131.9" r="6.2"></circle><circle class="st2" cx="262.1" cy="184.6" r="6.2"></circle><g>	<path class="st5" d="M143.2,372.5h4.8v26h-4.8V372.5z"></path>	<path class="st5" d="M158.2,386.7v11.8h-4.5v-18.4h4.5v2.3c1.1-1.6,2.9-2.8,5.4-2.8c3.9,0,6.6,2.3,6.6,7.4v11.5h-4.5v-10.7  c0-2.8-1.3-4-3.5-4C160.5,383.7,159,384.8,158.2,386.7L158.2,386.7z"></path>	<path class="st5" d="M180.1,396.8v8.7h-4.5v-25.5h4.2v1.9c1.1-1.4,3-2.4,5.3-2.4c4.5,0,8.3,3.5,8.3,9.6c0,6.1-3.8,9.6-8.2,9.6  C183,398.8,181.3,398,180.1,396.8L180.1,396.8z M184.4,394.7c2.4,0,4.4-1.9,4.4-5.5s-2-5.5-4.4-5.5c-2.3,0-4.3,1.5-4.3,4.4v2.1  C180.1,393.1,182,394.8,184.4,394.7L184.4,394.7z"></path>	<path class="st5" d="M209.2,396.2c-1.1,1.6-2.9,2.7-5.4,2.7c-3.7,0-6.5-2.2-6.5-7.1v-11.6h4.5v10.8c0,2.8,1.5,3.9,3.5,3.9  c1.5,0,3-1,3.8-2.9v-11.8h4.5v18.4h-4.5L209.2,396.2L209.2,396.2z"></path>	<path class="st5" d="M225.3,398.8c-3.1,0-5.5-1.7-5.5-5.6l0-9.3h-2.8v-3.8h2.8V375h4.4v5.1h5v3.8h-5v8.8c0,1.8,0.8,2.2,1.9,2.2  c0.7,0,1.3-0.3,1.9-0.8l1.9,2.9C228.8,398.2,227.1,398.8,225.3,398.8L225.3,398.8z"></path>	<path class="st5" d="M246.5,396.8v8.7H242v-25.5h4.2v1.9c1.1-1.4,3-2.4,5.3-2.4c4.5,0,8.3,3.5,8.3,9.6c0,6.1-3.8,9.6-8.2,9.6  C249.5,398.8,247.7,398,246.5,396.8L246.5,396.8z M250.9,394.7c2.4,0,4.4-1.9,4.4-5.5s-2-5.5-4.4-5.5c-2.3,0-4.3,1.5-4.3,4.4v2.1  C246.6,393.1,248.5,394.8,250.9,394.7L250.9,394.7z"></path>	<path class="st5" d="M269.1,398.8c-3.3,0-6.3-2.2-6.3-5.7c0-3.2,2.1-4.8,6.4-5.9l5.1-1.3c-0.2-1.7-1.5-2.6-3.5-2.6  s-3.3,0.9-3.9,2.5l-3.9-1.3c1.1-3.2,4.4-4.8,8.1-4.8c4.6,0,7.7,2.2,7.7,6.7v12.2h-4.4v-1.8l-0.2,0.2  C272.6,398.2,271,398.8,269.1,398.8L269.1,398.8z M270.1,395.2c1.1,0,2-0.3,3.3-1.3l0.9-0.6l0-4.1l-3.4,0.9  c-2.5,0.7-3.6,1.3-3.6,2.8C267.4,394.4,268.8,395.2,270.1,395.2L270.1,395.2z"></path>	<path class="st5" d="M288.6,386.2v12.3h-4.5v-18.4h4.5v2.1c0.8-1.3,2.2-2.4,3.9-2.4c1.3,0,2.5,0.4,3.2,0.9l-1.6,4  c-0.7-0.5-1.6-0.7-2.4-0.7C290.3,384,289.1,385,288.6,386.2L288.6,386.2z"></path>	<path class="st5" d="M303.5,398.8c-3.3,0-6.3-2.2-6.3-5.7c0-3.2,2.1-4.8,6.4-5.9l5.1-1.3c-0.2-1.7-1.5-2.6-3.5-2.6  s-3.3,0.9-3.9,2.5l-3.9-1.3c1.1-3.2,4.4-4.8,8.1-4.8c4.6,0,7.7,2.2,7.7,6.7v12.2h-4.4v-1.8l-0.2,0.2  C306.9,398.2,305.4,398.8,303.5,398.8L303.5,398.8z M304.5,395.2c1.1,0,2-0.3,3.3-1.3l0.9-0.6l0-4.1l-3.4,0.9  c-2.5,0.7-3.6,1.3-3.6,2.8C301.8,394.4,303.1,395.2,304.5,395.2L304.5,395.2z"></path>	<path class="st5" d="M323,386.7v11.8h-4.5v-18.4h4.5v2.1c1.1-1.5,2.8-2.5,5.2-2.5s4.3,1,5.4,2.9c1.2-1.8,3.2-2.9,5.9-2.9  c4,0,6.7,2.5,6.7,7.3v11.5h-4.5v-10.8c0-2.6-1.2-4-3.3-4c-1.7,0-3.1,1.1-3.8,3v11.8H330v-10.8c0-2.6-1.2-4-3.3-4  C325,383.7,323.6,384.8,323,386.7L323,386.7z"></path>	<path class="st5" d="M359.3,398.9c-5.1,0-9.4-3.5-9.4-9.7s4.1-9.6,9-9.6s8.4,3.4,8.6,8.8c0,0.9,0.1,1.5,0.1,1.8h-13.2  c0.1,3.1,2.3,5,5,5c2,0,3.8-1,4.8-2.7l3.1,2.2C366,397.3,363.2,398.9,359.3,398.9L359.3,398.9z M354.6,387.1h8.4  c-0.2-2.7-2.1-3.9-4.2-3.9S354.7,384.5,354.6,387.1L354.6,387.1z"></path>	<path class="st5" d="M377.9,398.8c-3.1,0-5.5-1.7-5.5-5.6l0-9.3h-2.8v-3.8h2.8V375h4.4v5.1h5v3.8h-5v8.8c0,1.8,0.8,2.2,1.9,2.2  c0.7,0,1.3-0.3,1.9-0.8l1.9,2.9C381.4,398.2,379.7,398.8,377.9,398.8L377.9,398.8z"></path>	<path class="st5" d="M393.3,398.9c-5.1,0-9.4-3.5-9.4-9.7s4.1-9.6,9-9.6s8.4,3.4,8.6,8.8c0,0.9,0.1,1.5,0.1,1.8h-13.2  c0.1,3.1,2.3,5,5,5c2,0,3.8-1,4.8-2.7l3.1,2.2C399.9,397.3,397.1,398.9,393.3,398.9L393.3,398.9z M388.6,387.1h8.4  c-0.2-2.7-2.1-3.9-4.2-3.9S388.7,384.5,388.6,387.1L388.6,387.1z"></path>	<path class="st5" d="M410.2,386.2v12.3h-4.5v-18.4h4.5v2.1c0.8-1.3,2.2-2.4,3.9-2.4c1.3,0,2.5,0.4,3.2,0.9l-1.6,4  c-0.7-0.5-1.6-0.7-2.4-0.7C411.9,384,410.7,385,410.2,386.2L410.2,386.2z"></path>	<path class="st5" d="M418.2,393.5l3.9-1.2c0.7,2,2.1,3,4.2,3c1.8,0,3.2-0.7,3.2-2.1c0-1.5-1.8-2-4-2.4c-3.8-0.6-6.4-2-6.4-5.5  s3.2-5.8,7.4-5.8s6.5,2,7.3,4.8l-3.8,1.1c-0.5-1.7-1.8-2.5-3.5-2.5s-3,0.9-3,2.2c0,1.5,1.6,1.8,3.9,2.1c3.7,0.6,6.6,2,6.6,5.8  c0,3.6-3.2,5.8-7.6,5.8C422.2,398.9,419.2,397.1,418.2,393.5L418.2,393.5z"></path>	<path class="st5" d="M451.5,386.7v11.8h-4.5v-18.4h4.5v2.3c1.1-1.6,2.9-2.8,5.4-2.8c3.9,0,6.6,2.3,6.6,7.4v11.5H459v-10.7  c0-2.8-1.3-4-3.5-4C453.7,383.7,452.2,384.8,451.5,386.7L451.5,386.7z"></path></g><g>	<path class="st5" d="M15.9,284.9h11v4.7h-26v-10.2c0-4.5,2.7-8,7.5-8s7.6,3.6,7.6,8.1L15.9,284.9L15.9,284.9z M11.7,284.9V280  c0-2.3-1.3-3.6-3.3-3.6S5,277.9,5,280v4.9L11.7,284.9L11.7,284.9z"></path>	<path class="st5" d="M27.2,260.8c0,5.1-3.5,9.4-9.7,9.4S8,266,8,261.1c0-4.9,3.4-8.4,8.8-8.6c0.9,0,1.5-0.1,1.8-0.1v13.2  c3.1-0.2,5-2.3,5-5c0-2-1-3.8-2.7-4.8l2.2-3.1C25.6,254.1,27.2,256.9,27.2,260.8L27.2,260.8z M15.5,265.5V257  c-2.7,0.2-3.9,2.1-3.9,4.2S12.9,265.3,15.5,265.5L15.5,265.5z"></path>	<path class="st5" d="M14.6,243.8h12.3v4.5H8.4v-4.5h2.1c-1.3-0.8-2.4-2.2-2.4-3.9c0-1.3,0.4-2.5,0.9-3.2l4.1,1.6  c-0.5,0.7-0.7,1.6-0.7,2.4C12.3,242.1,13.4,243.3,14.6,243.8L14.6,243.8z"></path>	<path class="st5" d="M12.2,228.3h14.6v4.5H12.2v2.8H8.4v-2.8H6.3c-2.4,0-3.9-0.7-4.8-1.8c-1-1-1.4-2.6-1.4-4.2c0-2.5,0.7-4.3,2-5.4  l2.8,2.5c-0.6,0.6-1,1.3-1,2.3c0,1.2,0.6,2.1,2.3,2.1h2.3v-4.2h3.8L12.2,228.3L12.2,228.3z"></path>	<path class="st5" d="M17.6,222.8c-6.1,0-9.6-4.4-9.6-9.3s3.5-9.2,9.6-9.2s9.7,4.4,9.7,9.2S23.6,222.8,17.6,222.8z M17.6,209  c-3.6,0-5.6,2.1-5.6,4.6s1.9,4.6,5.6,4.6s5.7-2.1,5.7-4.6S21.2,209,17.6,209z"></path>	<path class="st5" d="M14.6,195.7h12.3v4.5H8.4v-4.5h2.1c-1.3-0.8-2.4-2.2-2.4-3.9c0-1.3,0.4-2.5,0.9-3.2l4.1,1.6  c-0.5,0.7-0.7,1.6-0.7,2.4C12.3,194,13.4,195.2,14.6,195.7L14.6,195.7z"></path>	<path class="st5" d="M15.1,181.3h11.8v4.5H8.4v-4.5h2.1C9,180.2,8,178.5,8,176.1s1-4.3,2.9-5.4c-1.8-1.2-2.9-3.2-2.9-5.9  c0-4,2.5-6.7,7.3-6.7h11.5v4.5H16.1c-2.6,0-4,1.2-4,3.3c0,1.7,1.2,3.1,3,3.8h11.8v4.5H16.1c-2.6,0-4,1.2-4,3.3  C12.1,179.3,13.2,180.7,15.1,181.3L15.1,181.3z"></path>	<path class="st5" d="M27.2,147.9c0,3.3-2.2,6.3-5.7,6.3c-3.2,0-4.8-2.1-5.9-6.4l-1.3-5.1c-1.7,0.2-2.6,1.5-2.6,3.5s0.9,3.3,2.4,3.9  l-1.3,3.9c-3.2-1.1-4.8-4.4-4.8-8.1c0-4.6,2.2-7.7,6.7-7.7h12.2v4.4H25l0.2,0.2C26.6,144.4,27.2,146,27.2,147.9L27.2,147.9z   M23.5,146.9c0-1.1-0.3-2-1.3-3.3l-0.6-0.9l-4.1,0l0.9,3.4c0.7,2.5,1.3,3.6,2.8,3.6C22.8,149.6,23.5,148.2,23.5,146.9L23.5,146.9z"></path>	<path class="st5" d="M15,128.4h11.8v4.5H8.4v-4.5h2.3C9.1,127.3,8,125.6,8,123c0-3.9,2.3-6.6,7.4-6.6h11.5v4.5H16.1  c-2.8,0-4.1,1.3-4.1,3.5C12.1,126.2,13.2,127.7,15,128.4z"></path>	<path class="st5" d="M17.6,112.5c-6.2,0-9.6-4.5-9.6-9.1c0-4.3,2.3-7.2,5.5-8.2l1.4,4.1c-1.9,0.7-2.8,2.1-2.8,4.1  c0,2.3,1.8,4.5,5.5,4.5s5.6-2.2,5.6-4.5c0-2.1-1.3-3.5-3.2-4.2l1.5-4.1c3.8,1.3,5.8,4.4,5.8,8.4C27.3,108.1,23.9,112.5,17.6,112.5  L17.6,112.5z"></path>	<path class="st5" d="M27.2,83.4c0,5.1-3.5,9.4-9.7,9.4S8,88.6,8,83.7s3.4-8.4,8.8-8.6c0.9,0,1.5-0.1,1.8-0.1v13.2  c3.1-0.1,5-2.3,5-5c0-2-1-3.8-2.7-4.8l2.2-3.1C25.6,76.7,27.2,79.6,27.2,83.4L27.2,83.4z M15.5,88.1v-8.4c-2.7,0.2-3.9,2.1-3.9,4.2  S12.9,88,15.5,88.1L15.5,88.1z"></path>	<path class="st5" d="M57.7,277.2h8.7v4.5H41v-4.2h1.9c-1.4-1.2-2.4-3-2.4-5.3c0-4.5,3.5-8.3,9.6-8.3s9.6,3.8,9.6,8.2  C59.7,274.2,58.9,276,57.7,277.2L57.7,277.2z M55.6,272.9c0-2.4-1.9-4.4-5.5-4.4s-5.5,2-5.5,4.4c0,2.3,1.5,4.3,4.4,4.3h2.1  C54,277.1,55.6,275.2,55.6,272.9L55.6,272.9z"></path>	<path class="st5" d="M59.7,254.6c0,3.3-2.2,6.3-5.7,6.3c-3.2,0-4.8-2.1-5.9-6.4l-1.3-5.1c-1.7,0.2-2.6,1.5-2.6,3.5s0.9,3.3,2.4,3.9  l-1.3,3.9c-3.2-1.2-4.8-4.4-4.8-8.1c0-4.6,2.2-7.7,6.7-7.7h12.2v4.4h-1.8l0.2,0.2C59.1,251.1,59.7,252.7,59.7,254.6L59.7,254.6z   M56.1,253.6c0-1.1-0.3-2-1.3-3.3l-0.6-0.9l-4.1,0l0.9,3.4c0.7,2.5,1.3,3.6,2.8,3.6C55.3,256.3,56.1,254.9,56.1,253.6L56.1,253.6z"></path>	<path class="st5" d="M47.1,235.1h12.3v4.5H41v-4.5h2.1c-1.3-0.8-2.4-2.2-2.4-3.9c0-1.3,0.4-2.5,0.9-3.2l4.1,1.6  c-0.5,0.7-0.7,1.6-0.7,2.4C44.9,233.5,45.9,234.6,47.1,235.1L47.1,235.1z"></path>	<path class="st5" d="M59.7,220.2c0,3.3-2.2,6.3-5.7,6.3c-3.2,0-4.8-2.1-5.9-6.4l-1.3-5.1c-1.7,0.2-2.6,1.5-2.6,3.5s0.9,3.3,2.4,3.9  l-1.3,3.9c-3.2-1.1-4.8-4.4-4.8-8.1c0-4.6,2.2-7.7,6.7-7.7h12.2v4.4h-1.8l0.2,0.2C59.1,216.8,59.7,218.3,59.7,220.2L59.7,220.2z   M56.1,219.2c0-1.1-0.3-2-1.3-3.3l-0.6-0.9l-4.1,0l0.9,3.4c0.7,2.5,1.3,3.6,2.8,3.6C55.3,222,56.1,220.6,56.1,219.2L56.1,219.2z"></path>	<path class="st5" d="M47.6,200.8h11.8v4.5H41v-4.5h2.1c-1.5-1.1-2.5-2.8-2.5-5.2s1-4.3,2.9-5.4c-1.8-1.2-2.9-3.2-2.9-5.9  c0-4,2.5-6.7,7.3-6.7h11.5v4.5H48.6c-2.6,0-4,1.2-4,3.3c0,1.7,1.2,3.1,3,3.8h11.8v4.5H48.6c-2.6,0-4,1.2-4,3.3  C44.6,198.8,45.7,200.1,47.6,200.8L47.6,200.8z"></path>	<path class="st5" d="M59.8,164.4c0,5.1-3.5,9.4-9.7,9.4s-9.6-4.1-9.6-9s3.4-8.4,8.8-8.6c0.9,0,1.5-0.1,1.8-0.1v13.2  c3.1-0.1,5-2.3,5-5c0-2-1-3.8-2.7-4.8l2.2-3.1C58.2,157.7,59.8,160.5,59.8,164.4L59.8,164.4z M48,169.1v-8.4  c-2.7,0.2-3.9,2.1-3.9,4.2C44.1,166.9,45.4,169,48,169.1L48,169.1z"></path>	<path class="st5" d="M59.7,145.8c0,3.1-1.7,5.5-5.7,5.5l-9.3,0v2.8H41v-2.8h-5.1v-4.4H41v-5h3.8v5h8.8c1.8,0,2.2-0.8,2.2-1.9  c0-0.7-0.3-1.3-0.8-1.9l2.9-1.9C59.1,142.3,59.7,144,59.7,145.8L59.7,145.8z"></path>	<path class="st5" d="M59.8,130.4c0,5.1-3.5,9.4-9.7,9.4s-9.6-4.1-9.6-9s3.4-8.4,8.8-8.6c0.9,0,1.5-0.1,1.8-0.1v13.2  c3.1-0.1,5-2.3,5-5c0-2-1-3.8-2.7-4.8l2.2-3.1C58.2,123.8,59.8,126.6,59.8,130.4L59.8,130.4z M48,135.2v-8.4  c-2.7,0.2-3.9,2.1-3.9,4.2S45.4,135,48,135.2L48,135.2z"></path>	<path class="st5" d="M47.1,113.5h12.3v4.5H41v-4.5h2.1c-1.3-0.8-2.4-2.2-2.4-3.9c0-1.3,0.4-2.5,0.9-3.2l4.1,1.6  c-0.5,0.7-0.7,1.6-0.7,2.4C44.9,111.8,45.9,113,47.1,113.5L47.1,113.5z"></path>	<path class="st5" d="M59.4,85.1v4.7H38.8l3,6.1l-4.4,0.3l-4-7.9v-3.2H59.4L59.4,85.1z"></path></g></svg>