<svg xmlns="http://www.w3.org/2000/svg" viewBox="0 0 342 139.48"><g id="Layer_2" data-name="Layer 2"><g id="Layer_1-2" data-name="Layer 1"><path d="M182.72,77.12H167.57l-5.4,15.41h-7l16.11-44.94h8l16.12,44.94h-7.32Zm-13.35-6h11.49l-5.72-16.7h-.06Z" fill="#172337"/><path d="M208.4,93.05c-5.07,0-8.93-2.64-8.93-9.31V66.46h-4.81V60.94h4.88V51.82h6.35v9.12h9.32v5.52h-9.32V83.22c0,3.28,1.61,4.24,3.54,4.24A5.25,5.25,0,0,0,213,85.85l3.15,4.05A10.1,10.1,0,0,1,208.4,93.05Z" fill="#172337"/><path d="M226.12,71.92V92.53h-6.55V46.43h6.55V65.05a10.5,10.5,0,0,1,9.37-4.88c6.81,0,11.5,4.17,11.5,12.84V92.53H240.5V73.91c0-5.33-2.5-7.83-6.74-7.83C230.42,66.08,227.47,68.26,226.12,71.92Z" fill="#172337"/><path d="M253.53,51a4.11,4.11,0,0,1,8.22,0,4.11,4.11,0,0,1-8.22,0Zm.83,9.95h6.55V92.53h-6.55Z" fill="#172337"/><path d="M275.29,71.92V92.53h-6.54V60.94h6.54v4.11a10.52,10.52,0,0,1,9.38-4.88c6.8,0,11.49,4.17,11.49,12.84V92.53h-6.48V73.91c0-5.33-2.51-7.83-6.74-7.83C279.6,66.08,276.64,68.26,275.29,71.92Z" fill="#172337"/><path d="M302.71,51a4.11,4.11,0,0,1,8.22,0,4.11,4.11,0,1,1-8.22,0Zm.83,9.95h6.55V92.53h-6.55Z" fill="#172337"/><path d="M326.27,93.05c-5.39,0-10.66-3.54-10.66-9.7,0-5.39,3.6-8.22,11.3-10.27l8.67-2.25c-.26-3.34-2.95-5.14-6.68-5.14a7.76,7.76,0,0,0-7.45,4.5l-5.52-2.31c2.18-5.14,7.51-7.77,13.42-7.77,7.32,0,12.65,3.59,12.65,11.43v21h-6.29l-.07-3.27-.45.38C332.24,92,329.61,93.05,326.27,93.05Zm1.15-5.4c2.25,0,4-.64,6.68-2.69l1.48-1v-8l-6.29,1.67c-5,1.35-7.19,2.57-7.19,5.46C322.1,86.11,324.86,87.65,327.42,87.65Z" fill="#172337"/><path d="M79.7,53.8a6,6,0,0,0,11.61,2h20.61a6,6,0,1,0,0-4H91.31a6,6,0,0,0-3.64-3.65V27.55a6,6,0,1,0-4,0V48.16A6,6,0,0,0,79.7,53.8Z" fill="#5f82ff"/><path d="M37.86,43.84a6,6,0,1,0-6-6A6,6,0,0,0,37.86,43.84Z" fill="#67c3a6"/><path d="M101.62,43.84a6,6,0,1,0-6-6A6,6,0,0,0,101.62,43.84Z" fill="#67c3a6"/><path d="M75.72,6a6,6,0,1,0-8,5.63V32.05a6,6,0,1,0,4,0V11.61A6,6,0,0,0,75.72,6Z" fill="#7859b8"/><path d="M75.72,101.79a6,6,0,1,0-8,5.63v20.44a6,6,0,1,0,4,0V107.42A6,6,0,0,0,75.72,101.79Z" fill="#7859b8"/><path d="M101.62,95.64a6,6,0,1,0,6,6A6,6,0,0,0,101.62,95.64Z" fill="#67c3a6"/><path d="M37.69,75.72a6,6,0,1,0-5.64-8H11.61a6,6,0,1,0,0,4H32.05A6,6,0,0,0,37.69,75.72Z" fill="#67c3a6"/><path d="M133.5,63.76a6,6,0,0,0-5.64,4H107.42a6,6,0,1,0,0,4h20.44a6,6,0,1,0,5.64-8Z" fill="#67c3a6"/><path d="M117.56,79.7a6,6,0,0,0-5.64,4H91.31a6,6,0,1,0-7.62,7.62v20.61a6,6,0,1,0,4,0V91.31a6,6,0,0,0,3.64-3.64h20.61a6,6,0,1,0,5.64-8Z" fill="#5f82ff"/><path d="M37.86,95.64a6,6,0,1,0,6,6A6,6,0,0,0,37.86,95.64Z" fill="#67c3a6"/><path d="M59.78,21.92a6,6,0,1,0-8,5.63V48.16a6,6,0,0,0-3.65,3.65H27.55a6,6,0,1,0,0,4H48.16a6,6,0,1,0,7.63-7.63V27.55A6,6,0,0,0,59.78,21.92Z" fill="#5f82ff"/><path d="M59.78,85.68a6,6,0,0,0-11.62-2H27.55a6,6,0,1,0,0,4H48.16a6,6,0,0,0,3.65,3.64v20.61a6,6,0,1,0,4,0V91.31A6,6,0,0,0,59.78,85.68Z" fill="#5f82ff"/></g></g></svg>