<svg xmlns="http://www.w3.org/2000/svg" xmlns:xlink="http://www.w3.org/1999/xlink" id="Layer_2_00000026143917501156223910000008978137321336318883_" x="0px" y="0px" viewBox="0 0 500 403.9" style="enable-background:new 0 0 500 403.9;" xml:space="preserve"><style type="text/css">	.st0{fill:#98ACD9;}	.st1{fill:#93A8D6;}	.st2{fill:#5572B7;}	.st3{fill:#FFFFFF;}</style><polygon class="st0" points="500,347.4 91.3,347.4 91.3,0 99.8,0 99.8,338.8 500,338.8 "></polygon><rect x="275.7" y="-2.5" transform="matrix(0.8254 -0.5645 0.5645 0.8254 -50.2081 188.7008)" class="st0" width="8.5" height="356.1"></rect><g>	<circle class="st1" cx="206.9" cy="94.7" r="11.4"></circle>	<path class="st2" d="M206.9,107.8c-7.2,0-13.1-5.9-13.1-13.1s5.9-13.1,13.1-13.1S220,87.4,220,94.7S214.1,107.8,206.9,107.8z   M206.9,85c-5.4,0-9.7,4.4-9.7,9.7s4.4,9.7,9.7,9.7s9.7-4.4,9.7-9.7S212.3,85,206.9,85z"></path></g><g>	<circle class="st1" cx="307.3" cy="126.2" r="11.4"></circle>	<path class="st2" d="M307.3,139.3c-7.2,0-13.1-5.9-13.1-13.1c0-7.2,5.9-13.1,13.1-13.1s13.1,5.9,13.1,13.1  C320.4,133.5,314.5,139.3,307.3,139.3z M307.3,116.5c-5.4,0-9.7,4.4-9.7,9.7c0,5.3,4.4,9.7,9.7,9.7s9.7-4.4,9.7-9.7  C317,120.9,312.6,116.5,307.3,116.5z"></path></g><g>	<circle class="st1" cx="249.1" cy="119.7" r="11.4"></circle>	<path class="st2" d="M249.1,132.8c-7.2,0-13.1-5.9-13.1-13.1s5.9-13.1,13.1-13.1s13.1,5.9,13.1,13.1S256.3,132.8,249.1,132.8z   M249.1,110c-5.4,0-9.7,4.4-9.7,9.7s4.4,9.7,9.7,9.7s9.7-4.3,9.7-9.7S254.5,110,249.1,110z"></path></g><g>	<circle class="st1" cx="265.5" cy="231.1" r="11.4"></circle>	<path class="st2" d="M265.5,244.2c-7.2,0-13.1-5.9-13.1-13.1s5.9-13.1,13.1-13.1s13.1,5.9,13.1,13.1S272.7,244.2,265.5,244.2z   M265.5,221.4c-5.4,0-9.7,4.4-9.7,9.7s4.4,9.7,9.7,9.7s9.7-4.4,9.7-9.7S270.9,221.4,265.5,221.4z"></path></g><g>	<circle class="st1" cx="304.8" cy="255.7" r="11.4"></circle>	<path class="st2" d="M304.8,268.8c-7.2,0-13.1-5.9-13.1-13.1s5.9-13.1,13.1-13.1s13.1,5.9,13.1,13.1S312.1,268.8,304.8,268.8z   M304.8,246c-5.4,0-9.7,4.4-9.7,9.7s4.4,9.7,9.7,9.7s9.7-4.4,9.7-9.7S310.2,246,304.8,246z"></path></g><g>	<circle class="st1" cx="363.4" cy="262.6" r="11.4"></circle>	<path class="st2" d="M363.4,275.8c-7.2,0-13.1-5.9-13.1-13.1s5.9-13.1,13.1-13.1s13.1,5.9,13.1,13.1S370.6,275.8,363.4,275.8z   M363.4,252.9c-5.4,0-9.7,4.4-9.7,9.7s4.4,9.7,9.7,9.7s9.7-4.4,9.7-9.7S368.8,252.9,363.4,252.9z"></path></g><g>	<path class="st3" d="M154.6,370.4h4.8v26.3h-4.8V370.4z"></path>	<path class="st3" d="M169.7,384.8v12h-4.6v-18.6h4.6v2.4c1.1-1.6,2.9-2.8,5.5-2.8c3.9,0,6.7,2.4,6.7,7.4v11.6h-4.6v-10.8  c0-2.9-1.4-4.1-3.6-4.1C172,381.8,170.5,382.9,169.7,384.8L169.7,384.8z"></path>	<path class="st3" d="M191.8,395v8.8h-4.6v-25.7h4.3v2c1.2-1.4,3-2.4,5.4-2.4c4.6,0,8.4,3.5,8.4,9.7s-3.9,9.7-8.3,9.7  C194.8,397.1,193,396.3,191.8,395L191.8,395z M196.1,392.9c2.4,0,4.4-1.9,4.4-5.6s-2-5.6-4.4-5.6c-2.3,0-4.3,1.5-4.4,4.5v2.1  C191.8,391.3,193.8,392.9,196.1,392.9L196.1,392.9z"></path>	<path class="st3" d="M221.2,394.4c-1.2,1.6-2.9,2.7-5.4,2.7c-3.8,0-6.6-2.2-6.6-7.2v-11.8h4.6v10.9c0,2.8,1.5,3.9,3.5,3.9  c1.5,0,3.1-1,3.9-2.9v-12h4.6v18.6h-4.6L221.2,394.4L221.2,394.4z"></path>	<path class="st3" d="M237.5,397c-3.2,0-5.5-1.7-5.5-5.7l0-9.4h-2.8v-3.8h2.8V373h4.5v5.2h5.1v3.8h-5.1v8.9c0,1.8,0.8,2.2,1.9,2.2  c0.7,0,1.4-0.3,2-0.8l1.9,2.9C241,396.4,239.4,397,237.5,397L237.5,397z"></path>	<path class="st3" d="M259,395v8.8h-4.6v-25.7h4.3v2c1.2-1.4,3-2.4,5.4-2.4c4.6,0,8.4,3.5,8.4,9.7s-3.9,9.7-8.3,9.7  C261.9,397.1,260.2,396.3,259,395L259,395z M263.3,392.9c2.4,0,4.4-1.9,4.4-5.6s-2-5.6-4.4-5.6c-2.3,0-4.3,1.5-4.4,4.5v2.1  C259,391.3,260.9,392.9,263.3,392.9L263.3,392.9z"></path>	<path class="st3" d="M281.8,397.1c-3.3,0-6.4-2.2-6.4-5.8c0-3.2,2.1-4.8,6.5-6l5.1-1.3c-0.2-1.7-1.5-2.6-3.5-2.6s-3.3,0.9-3.9,2.5  l-4-1.4c1.2-3.2,4.4-4.9,8.1-4.9c4.6,0,7.7,2.2,7.7,6.8v12.3h-4.4v-1.8l-0.2,0.2C285.3,396.4,283.7,397.1,281.8,397.1L281.8,397.1z   M282.8,393.4c1.1,0,2-0.3,3.3-1.3l0.9-0.6l0-4.1l-3.4,0.9c-2.5,0.7-3.7,1.3-3.7,2.8C280,392.6,281.4,393.4,282.8,393.4  L282.8,393.4z"></path>	<path class="st3" d="M301.5,384.3v12.4h-4.6v-18.6h4.6v2.1c0.8-1.4,2.2-2.4,4-2.4c1.4,0,2.5,0.4,3.2,0.9l-1.6,4.1  c-0.8-0.5-1.6-0.8-2.4-0.8C303.1,382.1,302,383.1,301.5,384.3L301.5,384.3z"></path>	<path class="st3" d="M316.5,397.1c-3.3,0-6.4-2.2-6.4-5.8c0-3.2,2.1-4.8,6.5-6l5.1-1.3c-0.2-1.7-1.5-2.6-3.5-2.6s-3.3,0.9-3.9,2.5  l-4-1.4c1.2-3.2,4.4-4.9,8.1-4.9c4.6,0,7.7,2.2,7.7,6.8v12.3h-4.4v-1.8l-0.2,0.2C320,396.4,318.4,397.1,316.5,397.1L316.5,397.1z   M317.5,393.4c1.1,0,2-0.3,3.3-1.3l0.9-0.6l0-4.1l-3.4,0.9c-2.5,0.7-3.7,1.3-3.7,2.8C314.8,392.6,316.1,393.4,317.5,393.4  L317.5,393.4z"></path>	<path class="st3" d="M336.2,384.9v11.9h-4.6v-18.6h4.6v2.1c1.1-1.5,2.8-2.5,5.2-2.5s4.3,1,5.5,2.9c1.2-1.8,3.2-2.9,5.9-2.9  c4.1,0,6.8,2.5,6.8,7.4v11.6H355v-10.9c0-2.7-1.2-4.1-3.3-4.1c-1.7,0-3.2,1.2-3.8,3v11.9h-4.6v-10.9c0-2.7-1.2-4.1-3.3-4.1  C338.2,381.8,336.8,382.9,336.2,384.9L336.2,384.9z"></path>	<path class="st3" d="M372.9,397.1c-5.1,0-9.5-3.5-9.5-9.8s4.2-9.7,9.1-9.7s8.5,3.4,8.7,8.9c0,0.9,0.1,1.5,0.1,1.8H368  c0.1,3.2,2.3,5.1,5.1,5.1c2,0,3.8-1,4.9-2.7l3.2,2.2C379.6,395.5,376.8,397.1,372.9,397.1L372.9,397.1z M368.1,385.2h8.5  c-0.2-2.7-2.1-3.9-4.2-3.9S368.3,382.6,368.1,385.2z"></path>	<path class="st3" d="M391.6,397c-3.2,0-5.5-1.7-5.5-5.7l0-9.4h-2.8v-3.8h2.8V373h4.5v5.2h5.1v3.8h-5.1v8.9c0,1.8,0.8,2.2,1.9,2.2  c0.7,0,1.4-0.3,2-0.8l1.9,2.9C395.2,396.4,393.5,397,391.6,397L391.6,397z"></path>	<path class="st3" d="M407.2,397.1c-5.1,0-9.5-3.5-9.5-9.8s4.2-9.7,9.1-9.7s8.5,3.4,8.7,8.9c0,0.9,0.1,1.5,0.1,1.8h-13.3  c0.1,3.2,2.3,5.1,5.1,5.1c2,0,3.8-1,4.9-2.7l3.2,2.2C413.9,395.5,411.1,397.1,407.2,397.1L407.2,397.1z M402.4,385.2h8.5  c-0.2-2.7-2.1-3.9-4.2-3.9S402.6,382.6,402.4,385.2z"></path>	<path class="st3" d="M424.3,384.3v12.4h-4.6v-18.6h4.6v2.1c0.8-1.4,2.2-2.4,4-2.4c1.4,0,2.5,0.4,3.2,0.9l-1.6,4.1  c-0.8-0.5-1.6-0.8-2.4-0.8C426,382.1,424.9,383.1,424.3,384.3L424.3,384.3z"></path>	<path class="st3" d="M453.1,396.7h-4.7v-20.8l-6.2,3l-0.3-4.5l8-4h3.3V396.7z"></path></g><g>	<path class="st3" d="M16,282.6h11.1v4.8H0.8v-10.3c0-4.6,2.7-8,7.6-8s7.6,3.7,7.6,8.2V282.6L16,282.6z M11.8,282.6v-5  c0-2.3-1.3-3.6-3.3-3.6s-3.4,1.5-3.4,3.7v4.9H11.8L11.8,282.6z"></path>	<path class="st3" d="M27.5,258.2c0,5.1-3.5,9.5-9.8,9.5S8,263.5,8,258.5s3.4-8.5,8.9-8.7c0.9,0,1.5-0.1,1.8-0.1V263  c3.2-0.1,5.1-2.3,5.1-5.1c0-2-1-3.8-2.7-4.9l2.2-3.2C25.9,251.4,27.5,254.3,27.5,258.2L27.5,258.2z M15.6,262.9v-8.5  c-2.7,0.2-3.9,2.1-3.9,4.2S13,262.8,15.6,262.9z"></path>	<path class="st3" d="M14.7,241h12.4v4.6H8.5V241h2.1c-1.3-0.8-2.4-2.2-2.4-4c0-1.4,0.4-2.5,0.9-3.2l4.1,1.6  c-0.5,0.8-0.8,1.6-0.8,2.4C12.5,239.4,13.5,240.5,14.7,241L14.7,241z"></path>	<path class="st3" d="M12.4,225.4h14.8v4.5H12.4v2.8H8.5V230H6.3c-2.4,0-3.9-0.8-4.9-1.8c-1-1-1.5-2.7-1.5-4.3  c0-2.5,0.8-4.4,2.1-5.5l2.8,2.5c-0.6,0.6-1,1.4-1,2.3c0,1.2,0.6,2.1,2.4,2.1h2.3v-4.2h3.8L12.4,225.4L12.4,225.4z"></path>	<path class="st3" d="M17.7,219.9c-6.1,0-9.7-4.4-9.7-9.4s3.5-9.3,9.7-9.3s9.8,4.4,9.8,9.3S23.9,219.9,17.7,219.9z M17.7,205.8  c-3.6,0-5.6,2.1-5.6,4.7s1.9,4.7,5.6,4.7s5.7-2.1,5.7-4.7S21.4,205.8,17.7,205.8z"></path>	<path class="st3" d="M14.7,192.4h12.4v4.6H8.5v-4.6h2.1c-1.3-0.8-2.4-2.2-2.4-4c0-1.4,0.4-2.5,0.9-3.2l4.1,1.6  c-0.5,0.8-0.8,1.6-0.8,2.4C12.5,190.7,13.5,191.9,14.7,192.4L14.7,192.4z"></path>	<path class="st3" d="M15.2,177.9h11.9v4.6H8.5v-4.6h2.1c-1.5-1.1-2.6-2.8-2.6-5.2s1-4.3,2.9-5.5c-1.8-1.2-2.9-3.2-2.9-5.9  c0-4.1,2.5-6.8,7.4-6.8h11.7v4.6H16.3c-2.7,0-4.1,1.2-4.1,3.3c0,1.7,1.2,3.2,3,3.8h11.9v4.6H16.3c-2.7,0-4.1,1.2-4.1,3.3  C12.2,175.9,13.3,177.2,15.2,177.9L15.2,177.9z"></path>	<path class="st3" d="M27.5,144.1c0,3.3-2.2,6.4-5.8,6.4c-3.2,0-4.8-2.1-6-6.5l-1.3-5.1c-1.7,0.2-2.6,1.5-2.6,3.5  c0,2,0.9,3.3,2.5,3.9l-1.3,4c-3.2-1.2-4.9-4.4-4.9-8.1c0-4.6,2.2-7.7,6.8-7.7h12.3v4.4h-1.8l0.2,0.2  C26.8,140.7,27.5,142.2,27.5,144.1L27.5,144.1z M23.8,143.1c0-1.1-0.3-2-1.3-3.3l-0.6-0.9l-4.1,0l0.9,3.4c0.7,2.5,1.3,3.7,2.8,3.7  C23,145.9,23.8,144.5,23.8,143.1z"></path>	<path class="st3" d="M15.2,124.5h11.9v4.6H8.5v-4.6h2.4c-1.7-1.1-2.8-2.9-2.8-5.5c0-3.9,2.4-6.7,7.4-6.7h11.6v4.6H16.3  c-2.8,0-4.1,1.4-4.1,3.6C12.2,122.2,13.3,123.7,15.2,124.5L15.2,124.5z"></path>	<path class="st3" d="M17.7,108.4c-6.3,0-9.7-4.6-9.7-9.2c0-4.4,2.3-7.2,5.5-8.3l1.4,4.1c-1.9,0.8-2.8,2.1-2.8,4.1  c0,2.3,1.8,4.6,5.6,4.6s5.7-2.2,5.7-4.6c0-2.1-1.3-3.5-3.3-4.3l1.5-4.1c3.9,1.3,5.9,4.5,5.9,8.5C27.5,103.9,24.1,108.4,17.7,108.4  L17.7,108.4z"></path>	<path class="st3" d="M27.5,79c0,5.1-3.5,9.5-9.8,9.5S8,84.3,8,79.3s3.4-8.4,8.9-8.7c0.9,0,1.5-0.1,1.8-0.1v13.3  c3.2-0.1,5.1-2.3,5.1-5.1c0-2-1-3.8-2.7-4.9l2.2-3.2C25.9,72.2,27.5,75.1,27.5,79L27.5,79z M15.6,83.8v-8.5  c-2.7,0.2-3.9,2.1-3.9,4.2S13,83.6,15.6,83.8L15.6,83.8z"></path>	<path class="st3" d="M61.3,274.8h8.8v4.6H44.4V275h1.9c-1.4-1.2-2.4-3-2.4-5.4c0-4.6,3.5-8.4,9.7-8.4s9.7,3.9,9.7,8.3  C63.3,271.8,62.5,273.5,61.3,274.8L61.3,274.8z M59.2,270.4c0-2.4-1.9-4.4-5.6-4.4s-5.6,2-5.6,4.4c0,2.3,1.5,4.3,4.5,4.4h2.1  C57.6,274.7,59.2,272.8,59.2,270.4z"></path>	<path class="st3" d="M63.3,251.9c0,3.3-2.2,6.4-5.8,6.4c-3.2,0-4.8-2.1-6-6.5l-1.3-5.1c-1.7,0.2-2.6,1.5-2.6,3.5s0.9,3.3,2.5,3.9  l-1.3,4c-3.2-1.2-4.9-4.4-4.9-8.1c0-4.6,2.2-7.7,6.8-7.7H63v4.4h-1.8l0.2,0.2C62.7,248.5,63.3,250,63.3,251.9L63.3,251.9z   M59.6,250.9c0-1.1-0.3-2-1.3-3.3l-0.6-0.9l-4.1,0l0.9,3.4c0.7,2.5,1.3,3.7,2.8,3.7C58.8,253.7,59.6,252.3,59.6,250.9z"></path>	<path class="st3" d="M50.6,232.3H63v4.6H44.4v-4.6h2.1c-1.3-0.8-2.4-2.2-2.4-4c0-1.4,0.4-2.5,0.9-3.2l4.1,1.6  c-0.5,0.8-0.8,1.6-0.8,2.4C48.3,230.6,49.4,231.7,50.6,232.3L50.6,232.3z"></path>	<path class="st3" d="M63.3,217.2c0,3.3-2.2,6.4-5.8,6.4c-3.2,0-4.8-2.1-6-6.5l-1.3-5.1c-1.7,0.2-2.6,1.5-2.6,3.5s0.9,3.3,2.5,3.9  l-1.3,4c-3.2-1.2-4.9-4.4-4.9-8.1c0-4.6,2.2-7.7,6.8-7.7H63v4.4h-1.8l0.2,0.2C62.7,213.7,63.3,215.3,63.3,217.2L63.3,217.2z   M59.6,216.2c0-1.1-0.3-2-1.3-3.3l-0.6-0.9l-4.1,0l0.9,3.4c0.7,2.5,1.3,3.7,2.8,3.7C58.8,219,59.6,217.6,59.6,216.2z"></path>	<path class="st3" d="M51.1,197.6H63v4.6H44.4v-4.6h2.1c-1.5-1.1-2.6-2.8-2.6-5.2s1-4.3,2.9-5.5c-1.8-1.2-2.9-3.2-2.9-5.9  c0-4.1,2.5-6.8,7.4-6.8H63v4.6H52.1c-2.7,0-4.1,1.2-4.1,3.3c0,1.7,1.2,3.2,3,3.8H63v4.6H52.1c-2.7,0-4.1,1.2-4.1,3.3  C48.1,195.5,49.2,196.9,51.1,197.6L51.1,197.6z"></path>	<path class="st3" d="M63.4,160.8c0,5.1-3.5,9.5-9.8,9.5s-9.7-4.2-9.7-9.1s3.4-8.5,8.9-8.7c0.9,0,1.5-0.1,1.8-0.1v13.3  c3.2-0.1,5.1-2.3,5.1-5.1c0-2-1-3.8-2.7-4.9l2.2-3.2C61.7,154.1,63.4,156.9,63.4,160.8L63.4,160.8z M51.5,165.6v-8.5  c-2.7,0.2-3.9,2.1-3.9,4.2S48.9,165.4,51.5,165.6z"></path>	<path class="st3" d="M63.3,142.1c0,3.2-1.7,5.5-5.7,5.5l-9.4,0v2.8h-3.8v-2.8h-5.2v-4.5h5.2V138h3.8v5.1h8.9c1.8,0,2.2-0.8,2.2-1.9  c0-0.7-0.3-1.4-0.8-1.9l2.9-1.9C62.6,138.5,63.3,140.2,63.3,142.1L63.3,142.1z"></path>	<path class="st3" d="M63.4,126.5c0,5.1-3.5,9.5-9.8,9.5s-9.7-4.2-9.7-9.1c0-5,3.4-8.4,8.9-8.7c0.9,0,1.5-0.1,1.8-0.1v13.3  c3.2-0.1,5.1-2.3,5.1-5.1c0-2-1-3.8-2.7-4.9l2.2-3.2C61.7,119.8,63.4,122.6,63.4,126.5L63.4,126.5z M51.5,131.3v-8.5  c-2.7,0.2-3.9,2.1-3.9,4.2C47.5,129.1,48.9,131.1,51.5,131.3L51.5,131.3z"></path>	<path class="st3" d="M50.6,109.4H63v4.6H44.4v-4.6h2.1c-1.3-0.8-2.4-2.2-2.4-4c0-1.4,0.4-2.5,0.9-3.2l4.1,1.6  c-0.5,0.8-0.8,1.6-0.8,2.4C48.3,107.7,49.4,108.9,50.6,109.4L50.6,109.4z"></path>	<path class="st3" d="M63,80.7v4.7H42.2l3,6.2l-4.5,0.3l-4-8v-3.3L63,80.7L63,80.7z"></path></g></svg>