<?xml version="1.0" encoding="UTF-8"?>
<svg enable-background="new 0 0 73.2 73.2" viewBox="0 0 73.2 73.2" xml:space="preserve" xmlns="http://www.w3.org/2000/svg">
<style type="text/css">
	.st0{fill:#5F82FF;}
</style>

	
		<path class="st0" d="m73.2 10c0 5.5-4.6 10-10.1 9.9-4.2 0-7.9-2.7-9.3-6.6h-34.4c-1 2.8-3.2 5.1-6.1 6.1v34.4c5.2 1.8 7.9 7.6 6.1 12.8s-7.6 7.9-12.8 6.1-7.9-7.6-6.1-12.8c1-2.9 3.2-5.1 6.1-6.1v-34.4c-5.2-1.8-8-7.5-6.1-12.7s7.5-8 12.7-6.1c2.9 1 5.1 3.3 6.1 6.1h34.4c1.9-5.2 7.6-7.9 12.8-6 4.1 1.4 6.7 5.1 6.7 9.3"/>
	

</svg>
