<?xml version="1.0" encoding="utf-8"?>
<!-- Generator: Adobe Illustrator 25.4.1, SVG Export Plug-In . SVG Version: 6.00 Build 0)  -->
<svg version="1.1" id="Layer_1" xmlns="http://www.w3.org/2000/svg" xmlns:xlink="http://www.w3.org/1999/xlink" x="0px" y="0px"
	 viewBox="0 0 95.2 57.7" style="enable-background:new 0 0 95.2 57.7;" xml:space="preserve">
<style type="text/css">
	.st0{fill:#5F78BB;}
</style>
<g id="Layer_2_00000052798842948470774640000010135763331903570069_">
	<g id="Layer_1-2">
		<path class="st0" d="M92.4,54.8c-3.9,3.9-10.3,3.8-14.1-0.1c-2.9-3-3.7-7.5-1.9-11.2L51.9,19.1c-2.7,1.3-5.9,1.3-8.6,0L19,43.4
			c2.4,5,0.3,11-4.7,13.3S3.4,57,1,52c-2.4-5-0.3-11,4.7-13.3c2.7-1.3,5.9-1.3,8.6,0l24.3-24.3c-2.4-5-0.3-11,4.7-13.3
			s11-0.3,13.3,4.7c1.3,2.7,1.3,5.9,0,8.7L81,38.7c5-2.3,11-0.2,13.3,4.8C96.1,47.3,95.3,51.8,92.4,54.8"/>
	</g>
</g>
</svg>
