<?xml version="1.0" encoding="UTF-8"?>
<svg enable-background="new 0 0 488.9 116.9" viewBox="0 0 488.9 116.9" xml:space="preserve" xmlns="http://www.w3.org/2000/svg">
<style type="text/css">
	.st0{fill:#FFFFFF;}
</style>

	<g transform="translate(-133 -56)">
		<g transform="translate(133 56)">
			<path class="st0" d="m131.2 55.7c-6-1.1-13.1-1.4-21-1.1-24 28.9-62.5 53.9-88.2 57.2-6.3 0.8-10.9 0.3-14.7-1.4 2.5 2.2 6.6 4.1 12.3 5.2 24.6 4.9 69.6-4.6 100.5-21.2s35.9-34.1 11.1-38.7z"/>
			<path class="st0" d="m36.4 64.7c25.7-15.5 59-26.7 87.4-30.2 12-22.6 6.3-37-16.1-34-27 3.4-68.3 31.2-91.7 61.7-17.3 22.3-20.3 39.8-10.4 46.6-7.1-10.6 3.8-27.5 30.8-44.1z"/>
			<path class="st0" d="m211.5 62.5-13.9-3.8c-3.8-1.1-5.7-2.7-5.7-4.9 0-3.8 6.6-5.7 12.8-5.7 5.7 0 9.6 1.9 12.6 3.3 1.9 0.8 3.6 1.6 5.2 1.6 4.4 0 5.2-1.9 5.2-3.5l-0.5-1.9c-2.5-3.3-13.1-6-24.3-6-10.9 0-22.1 4.9-22.1 12.8 0 6.8 6.6 9.5 12.3 11.2l15.8 4.4c4.6 1.4 9 2.7 9 6.5 0 3.5-4.9 7.1-14.2 7.1-7.4 0-12-2.5-15.3-4.4-2.2-1.1-3.8-2.2-5.5-2.2-2.5 0-4.9 2.2-4.9 3.8 0 3.8 10.7 9.3 25.4 9.3 15.6 0 25.9-5.7 25.9-13.9-0.3-8.3-9.1-11.3-17.8-13.7z"/>
			<path class="st0" d="m279.8 41.5c-19.7 0-30 12.3-30 24.2 0 11.2 8.2 24.2 31.7 24.2 16.1 0 27.3-6.5 27.3-9.8 0-3.8-3.6-3.8-4.9-3.8-1.6 0-3.3 0.8-5.2 2.2-3.6 2.2-8.5 4.9-17.8 4.9-11.5 0-18.8-7.1-19.7-14.2h41.8c4.6 0 6.8-1.4 6.8-4.4-0.3-11.3-9.6-23.3-30-23.3zm18.5 21h-37.1c0.8-7.4 7.1-14.4 18.6-14.4 11.2 0 17.7 7.3 18.5 14.4z"/>
			<path class="st0" d="m458.1 41.5c-3.3 0-5.2 1.6-5.2 4.6v38.9c0 3 1.9 4.6 5.2 4.6s5.2-1.6 5.2-4.6v-38.9c0-3-1.9-4.6-5.2-4.6z"/>
			<path class="st0" d="m378.9 49.4c4.4-4.6 12.3-7.9 19.9-7.9 12 0 25.1 5.4 25.1 17.2v26.7c0 3-1.9 4.6-5.2 4.6s-5.2-1.6-5.2-4.6v-25.4c0-7.6-4.9-11.2-14.7-11.2-7.4 0-15 4.1-15 11.2v25.3c0 3-1.9 4.6-5.2 4.6s-5.2-1.6-5.2-4.6v-25.3c0-7.4-7.9-11.4-15-11.4-10.1 0-14.7 3.8-14.7 11.4v25.3c0 3-1.9 4.6-5.2 4.6s-5.2-1.6-5.2-4.6v-26.6c0-11.7 13.1-17.2 25.1-17.2 7.9 0 15.6 3 19.9 7.9l0.5 0.3v-0.3z"/>
			<path class="st0" d="m478 43.7h-1.4c-0.3 0-0.5-0.3-0.5-0.5 0-0.3 0.3-0.5 0.5-0.5h4.1c0.3 0 0.5 0.3 0.5 0.5 0 0.3-0.3 0.5-0.5 0.5h-1.4v4.9c0 0.3-0.3 0.5-0.5 0.5-0.5 0-0.5-0.3-0.5-0.5v-4.9h-0.3zm4.1 0c0-0.8 0.3-1.1 0.8-1.1 0.3 0 0.8 0 1.1 0.5l1.6 4.1 1.4-4.1c0.3-0.5 0.5-0.5 1.1-0.5 0.5 0 0.8 0.3 0.8 1.1v4.9c0 0.3-0.3 0.5-0.5 0.5-0.3 0-0.5-0.3-0.5-0.5v-4.6l-1.6 4.6c0 0.5-0.3 0.5-0.5 0.5-0.3 0-0.5-0.3-0.5-0.5l-1.6-4.6v4.6c0 0.3-0.3 0.5-0.5 0.5s-0.5-0.3-0.5-0.5v-4.9h-0.6z"/>
		</g>
	</g>

</svg>
